<?xml version="1.0" standalone="no"?><!DOCTYPE svg PUBLIC "-//W3C//DTD SVG 1.1//EN" "http://www.w3.org/Graphics/SVG/1.1/DTD/svg11.dtd"><svg t="1776428266180" class="icon" viewBox="0 0 1024 1024" version="1.1" xmlns="http://www.w3.org/2000/svg" p-id="2208" xmlns:xlink="http://www.w3.org/1999/xlink" width="200" height="200"><path d="M0 1024h1024V0H0v1024z" fill="#FFFFFF" p-id="2209"></path><path d="M405.333333 213.333333h-64v85.333334h-21.333333v42.666666h-85.333333v362.666667h149.333333v21.333333h256v-21.333333h149.333333V341.333333h-85.333333v-42.666666h-21.333333v-85.333334h-64v85.333334h-21.333334v42.666666h-170.666666v-42.666666h-21.333334v-85.333334z" fill="#FFC559" p-id="2210"></path><path d="M576 341.333333h21.333333v85.333334h-21.333333v-85.333334z m0 85.333334h-21.333333v64h21.333333v-64zM448 341.333333h-21.333333v85.333334h21.333333v-85.333334z m0 85.333334h21.333333v64h-21.333333v-64zM234.666667 426.666667h21.333333v21.333333h21.333333v21.333333h21.333334v21.333334h21.333333v21.333333h42.666667v21.333333h42.666666v21.333334h-85.333333v-21.333334h-42.666667v-21.333333h-42.666666v-85.333333z" fill="#FFA600" p-id="2211"></path><path d="M277.333333 533.333333h-42.666666v64h21.333333v21.333334h64v21.333333h64v-21.333333h-21.333333v-21.333334h-42.666667v-21.333333h-42.666667v-42.666667zM746.666667 533.333333h42.666666v64h-21.333333v21.333334h-64v21.333333h-64v-21.333333h21.333333v-21.333334h42.666667v-21.333333h42.666667v-42.666667z" fill="#FFA600" p-id="2212"></path><path d="M789.333333 469.333333h-64v21.333334h-21.333333v21.333333h-42.666667v21.333333h-42.666666v21.333334h85.333333v-21.333334h42.666667v-21.333333h42.666666v-42.666667z" fill="#FFA600" p-id="2213"></path><path d="M362.666667 170.666667h21.333333v42.666666h-21.333333V170.666667z m-21.333334 85.333333v-42.666667h21.333334v42.666667h-21.333334z m-21.333333 42.666667v-42.666667h21.333333v42.666667h-21.333333z m0 0v42.666666h-21.333333v-42.666666h21.333333z m85.333333-42.666667h-21.333333v-42.666667h21.333333v42.666667z m21.333334 42.666667h-21.333334v-42.666667h21.333334v42.666667z m0 0h21.333333v42.666666h-21.333333v-42.666666zM640 170.666667h21.333333v42.666666h-21.333333V170.666667z m-21.333333 85.333333v-42.666667h21.333333v42.666667h-21.333333z m-21.333334 42.666667v-42.666667h21.333334v42.666667h-21.333334z m0 0v42.666666h-21.333333v-42.666666h21.333333z m85.333334-42.666667h-21.333334v-42.666667h21.333334v42.666667z m21.333333 42.666667h-21.333333v-42.666667h21.333333v42.666667z m0 0h21.333333v42.666666h-21.333333v-42.666666zM416 512v-85.333333h-21.333333v85.333333h21.333333z m213.333333 0v-85.333333h-21.333333v85.333333h21.333333z" fill="#000000" p-id="2214"></path><path d="M320 352h-74.666667v343.253333H384v19.413334h256v-19.413334h138.666667V352H704v-21.333333h96v385.92H661.333333v19.413333H362.666667v-19.413333h-138.666667V330.666667H320v21.333333z m106.666667-21.333333h170.666666v21.333333h-170.666666v-21.333333z m64 213.333333h42.666666v21.333333h-10.666666V597.333333h10.666666v21.333334h-42.666666v-21.333334h10.666666v-32H490.666667v-21.333333zM448 618.666667h42.666667v21.333333h-42.666667v-21.333333z m0 0h-21.333333v-21.333334h21.333333v21.333334z m128 0v21.333333h-42.666667v-21.333333h42.666667z m0 0v-21.333334h21.333333v21.333334h-21.333333z" fill="#000000" p-id="2215"></path><path d="M874.666667 448h-42.666667v21.333333h-42.666667v21.333334h-42.666666v21.333333h-21.333334v21.333333h21.333334v-21.333333h42.666666v-21.333333h42.666667v-21.333334h42.666667v-21.333333zM874.666667 682.666667h-42.666667v-21.333334h-42.666667v-21.333333h-42.666666v-21.333333h-21.333334v-21.333334h21.333334v21.333334h42.666666v21.333333h42.666667v21.333333h42.666667v21.333334zM810.666667 554.666667h-85.333334v21.333333h170.666667v-21.333333h-85.333333zM213.333333 554.666667H128v21.333333h170.666667v-21.333333h-85.333334zM149.333333 448h42.666667v21.333333h42.666667v21.333334h42.666666v21.333333h21.333334v21.333333h-21.333334v-21.333333h-42.666666v-21.333333H192v-21.333334H149.333333v-21.333333zM149.333333 682.666667h42.666667v-21.333334h42.666667v-21.333333h42.666666v-21.333333h21.333334v-21.333334h-21.333334v21.333334h-42.666666v21.333333H192v21.333333H149.333333v21.333334z" fill="#000000" p-id="2216"></path><path d="M640 277.333333h21.333333v21.333334h21.333334v64h-64v-64h21.333333v-21.333334zM362.666667 277.333333h21.333333v21.333334h21.333333v64h-64v-64h21.333334v-21.333334z" fill="#FFA600" fill-opacity=".7" p-id="2217"></path></svg>