<svg xmlns="http://www.w3.org/2000/svg" viewBox="0 0 360 420" role="img" aria-labelledby="title desc">
  <title id="title">WeChat Pay Placeholder</title>
  <desc id="desc">Replace this file with your real WeChat payment QR code.</desc>
  <rect width="360" height="420" rx="24" fill="#f6fffb"/>
  <rect x="18" y="18" width="324" height="384" rx="20" fill="#ffffff" stroke="#d7f3e6" stroke-width="4"/>
  <rect x="60" y="54" width="240" height="240" rx="16" fill="#07c160"/>
  <rect x="82" y="76" width="196" height="196" rx="10" fill="#ffffff"/>
  <path d="M112 108h34v34h-34zm51 0h17v17h-17zm34 0h17v17h-17zm34 0h17v17h-17zm-68 34h17v17h-17zm34 0h17v17h-17zm34 0h34v34h-34zm-119 34h17v17h-17zm34 0h17v17h-17zm68 0h17v17h-17zm34 0h17v17h-17zm-102 34h34v34h-34zm51 0h17v17h-17zm34 0h17v17h-17zm34 0h34v34h-34z" fill="#07c160"/>
  <text x="180" y="330" text-anchor="middle" font-size="28" font-family="Segoe UI, PingFang SC, Microsoft YaHei, sans-serif" fill="#111827">微信打赏码位置</text>
  <text x="180" y="366" text-anchor="middle" font-size="18" font-family="Segoe UI, PingFang SC, Microsoft YaHei, sans-serif" fill="#6b7280">把你的收款码替换这个文件即可</text>
</svg>
